HIERARCHY
ROOT Hips
{
  OFFSET 0 0 0
  CHANNELS 6 Xposition Yposition Zposition Zrotation Yrotation Xrotation
  JOINT LeftThigh
  {
    OFFSET 8.409438 0 -5.917753
    CHANNELS 3 Zrotation Yrotation Xrotation
    JOINT LeftLeg
    {
      OFFSET 0 0 -42.358652
      CHANNELS 3 Zrotation Yrotation Xrotation
      JOINT LeftFoot
      {
        OFFSET 0 0 -39.357303
        CHANNELS 3 Zrotation Yrotation Xrotation
      }
    }
  }
  JOINT RightThigh
  {
    OFFSET -8.409438 0 -5.917753
    CHANNELS 3 Zrotation Yrotation Xrotation
    JOINT RightLeg
    {
      OFFSET 0 0 -42.358652
      CHANNELS 3 Zrotation Yrotation Xrotation
      JOINT RightFoot
      {
        OFFSET 0 0 -39.357303
        CHANNELS 3 Zrotation Yrotation Xrotation
      }
    }
  }
  JOINT SpineLow
  {
    OFFSET 0 0 4.719101
    CHANNELS 3 Zrotation Yrotation Xrotation
    JOINT SpineMid
    {
      OFFSET 0 0 12.899191
      CHANNELS 3 Zrotation Yrotation Xrotation
      JOINT Chest
      {
        OFFSET 0 0 12.899191
        CHANNELS 3 Zrotation Yrotation Xrotation
        JOINT LeftShoulder
        {
          OFFSET 7.550562 1.41573 9.438202
          CHANNELS 3 Zrotation Yrotation Xrotation
          JOINT LeftArm
          {
            OFFSET 9.155056 0 4.247191
            CHANNELS 3 Zrotation Yrotation Xrotation
            JOINT LeftForearm
            {
              OFFSET 0 0 25.771955
              CHANNELS 3 Zrotation Yrotation Xrotation
              JOINT LeftHand
              {
                OFFSET 0 0 25.197169
                CHANNELS 3 Zrotation Yrotation Xrotation
              }
            }
          }
        }
        JOINT RightShoulder
        {
          OFFSET -7.550562 1.41573 9.438202
          CHANNELS 3 Zrotation Yrotation Xrotation
          JOINT RightArm
          {
            OFFSET -9.155056 0 4.247191
            CHANNELS 3 Zrotation Yrotation Xrotation
            JOINT RightForearm
            {
              OFFSET 0 0 -25.771955
              CHANNELS 3 Zrotation Yrotation Xrotation
              JOINT RightHand
              {
                OFFSET 0 0 -25.197169
                CHANNELS 3 Zrotation Yrotation Xrotation
              }
            }
          }
        }
        JOINT Neck
        {
          OFFSET 0 0 15.101124
          CHANNELS 3 Zrotation Yrotation Xrotation
          JOINT Head
          {
            OFFSET 0 0 11.325843
            CHANNELS 3 Zrotation Yrotation Xrotation
            End Site
            {
              OFFSET 0 0 14.157303
            }
          }
        }
      }
    }
  }
}
MOTION
Frames: 16
Frame Time: 0.0
0.0  89.887642  0.0  10.981434  -65.981659  -113.877526  47.711913  -48.787544  -33.782322  14.525455  29.172916  72.96768  -1.365537  1.334705  0.880379  -11.273065  19.576435  -52.808695  33.382577  -16.617926  78.310028  5.831235  8.273345  -6.652578  2.26785  1.961131  1.411425  6.323319  5.220443  4.045988  6.323319  5.220443  4.045988  -14.444689  19.182593  15.225515  -74.174457  47.121378  -73.422923  -40.599113  5.324461  72.739359  44.170298  8.29881  18.929437  6.336886  5.118095  22.594671  111.217182  52.163488  21.998802  -11.918278  -7.112312  -74.907821  94.137985  2.094656  -2.094931  9.586308  -6.585289  10.137853  7.293808  -4.783081  7.700905  
0.0  89.887642  0.0  11.649852  -65.847697  -114.471274  47.450088  -48.756768  -33.47191  14.76467  29.018987  72.924161  -1.375146  1.384248  0.916722  -11.570259  19.552113  -53.137096  33.782467  -16.581193  78.578031  6.078975  8.210794  -6.72876  2.259015  2.01097  1.400343  6.301826  5.358092  4.020084  6.301826  5.358092  4.020084  -14.382025  19.221889  15.710608  -74.962325  46.796401  -74.348854  -40.779672  5.3265  72.697057  44.360437  8.58478  18.846126  6.240021  5.126139  22.738062  111.232662  51.962723  21.931368  -12.400267  -7.089342  -74.857841  93.836956  2.415793  -2.222916  9.45225  -6.604186  10.108028  7.193278  -4.799901  7.67729  
0.0  89.887642  0.0  12.209284  -65.641501  -114.966339  47.408618  -48.586799  -33.324348  14.989734  28.826408  72.988607  -1.437233  1.362987  0.961495  -12.054103  19.511234  -53.48936  34.25099  -16.980543  78.742716  5.863299  8.293676  -6.806465  2.244444  2.051998  1.387063  6.263787  5.472257  3.986765  6.263786  5.472257  3.986765  -14.333366  19.301717  16.159553  -75.713214  46.515632  -75.150481  -40.978308  5.31859  72.629553  44.629969  8.81479  18.618386  6.217329  5.173564  22.791707  110.954716  51.630035  21.699384  -12.906872  -6.987546  -74.843758  93.385815  2.793451  -2.354583  9.325302  -6.603453  10.148755  7.098593  -4.800804  7.706363  
0.0  89.887642  0.0  12.776611  -65.418403  -115.458689  47.554295  -48.375751  -33.274514  15.112975  28.68068  73.01863  -1.488681  1.379959  1.036632  -12.497619  19.549938  -53.763733  34.662065  -17.317894  78.802208  5.592664  8.190622  -6.794239  2.219666  2.079337  1.357401  6.19544  5.551238  3.906339  6.19544  5.551238  3.906339  -14.101569  19.503553  16.62862  -76.497305  46.273553  -75.753106  -41.139865  5.202583  72.533315  44.994607  9.016025  18.415272  6.294831  5.285736  22.879425  110.539475  51.214709  21.405586  -13.435873  -6.801776  -74.837218  92.775303  3.126909  -2.405595  9.230911  -6.566303  10.274452  7.028732  -4.772604  7.799017  
0.0  89.887642  0.0  13.134769  -65.120448  -115.738342  47.782159  -48.141439  -33.328479  15.119729  28.698206  72.919599  -1.448032  1.382235  1.12166  -12.95797  19.6317  -53.986744  34.933936  -17.421649  78.78084  5.531222  8.211992  -6.779877  2.1755  2.07694  1.303765  6.069909  5.552385  3.755666  6.069909  5.552385  3.755666  -13.799966  19.890756  17.1335  -77.200225  46.006433  -76.246042  -41.203852  5.033178  72.478262  45.314753  9.219379  18.256557  6.560032  5.574568  23.117673  109.851358  50.805805  20.952744  -14.037183  -6.362662  -74.910362  91.946264  3.352603  -2.302167  9.193399  -6.457417  10.516575  7.0017  -4.687936  7.978663  
0.0  89.887642  0.0  13.470998  -64.82949  -116.014314  48.075157  -47.911713  -33.377474  15.144003  28.678561  72.880041  -1.407073  1.353896  1.175362  -13.297529  19.819226  -54.091052  35.163559  -17.370811  78.613283  5.645971  8.179062  -6.731409  2.126341  2.046658  1.233261  5.927521  5.479019  3.55573  5.927521  5.479019  3.55573  -13.3495  20.446881  17.675575  -77.937374  45.731592  -76.617741  -41.181379  4.852367  72.447904  45.494562  9.364718  17.877155  6.908117  6.015021  23.587608  108.909207  50.44726  20.348548  -14.538679  -5.656575  -75.17786  91.110661  3.403713  -1.901153  9.197787  -6.274789  10.844503  7.005757  -4.545959  8.222165  
0.0  89.887642  0.0  13.579708  -64.395115  -116.121998  48.322069  -47.72355  -33.485666  15.046853  28.797086  72.744288  -1.361417  1.348975  1.229458  -13.803363  20.063235  -54.100067  35.226063  -17.149467  78.420411  5.778918  8.165938  -6.688405  2.058714  1.998218  1.171423  5.734336  5.355976  3.376463  5.734336  5.355976  3.376462  -12.908646  21.078468  18.195087  -78.705491  45.405275  -76.920452  -41.174572  4.859293  72.478782  45.626174  9.477574  17.096735  7.450862  6.562793  24.192997  107.921762  50.127665  19.77016  -15.35844  -4.657545  -75.609545  90.330617  3.284948  -1.264154  9.22287  -6.042737  11.174785  7.024343  -4.36647  8.467037  
0.0  89.887642  0.0  13.552518  -63.893701  -116.071033  48.515058  -47.565556  -33.676576  14.986092  28.978524  72.60655  -1.266025  1.367487  1.312943  -14.403541  20.384549  -54.051862  35.132282  -16.935511  78.050901  5.962759  8.20333  -6.578631  1.992138  1.929945  1.104935  5.542809  5.178731  3.183071  5.54281  5.178731  3.183071  -12.567833  21.846655  18.714219  -79.484583  45.014802  -77.143987  -41.264427  5.166943  72.59656  45.85886  9.55743  15.904492  7.97852  7.150915  24.970655  105.254845  49.826214  17.904852  -15.452408  -2.990542  -76.263688  89.606142  3.052256  -0.458207  9.199135  -5.761984  11.498827  7.005182  -4.151392  8.706123  
0.0  89.887642  0.0  13.375309  -63.246884  -115.884141  48.67633  -47.344431  -33.940711  14.848659  29.159222  72.487251  -1.194503  1.349031  1.381721  -15.068965  20.868836  -53.861642  34.990725  -16.754709  77.501753  6.025719  8.218895  -6.480956  1.920881  1.833863  1.034973  5.337159  4.925638  2.977858  5.337159  4.925638  2.977858  -12.282691  22.788245  19.320222  -80.304705  44.574422  -77.269459  -41.440045  5.775548  72.855525  46.246954  9.535882  14.377248  8.533097  7.867568  25.751424  103.801595  49.379046  16.974175  -16.636037  -1.481228  -77.156923  88.94713  2.614042  0.692566  9.100036  -5.388719  11.886749  6.928162  -3.867401  8.991248  
0.0  89.887642  0.0  12.97803  -62.393454  -115.430929  48.814401  -47.004974  -34.425405  14.60333  29.393379  72.373201  -1.198019  1.283035  1.402445  -15.996946  21.455498  -53.661512  34.796398  -16.59957  76.791359  6.10474  8.248284  -6.380127  1.823282  1.732051  0.984137  5.061122  4.656082  2.823309  5.061123  4.656082  2.823309  -12.079395  23.672951  19.764041  -81.22329  44.132759  -77.282241  -41.589895  6.520283  73.30077  46.743105  9.312086  12.750874  9.084772  8.579337  26.568292  101.935574  49.113864  15.753272  -17.75913  0.032266  -78.361775  88.203919  2.012986  2.131469  8.944927  -4.953428  12.188119  6.806714  -3.539329  9.210347  
0.0  89.887642  0.0  12.266689  -61.398786  -114.579656  49.046417  -46.517697  -35.216887  14.244809  29.537016  72.333311  -1.217295  1.248631  1.426522  -16.978889  22.162136  -53.388045  34.381216  -16.366593  75.883105  6.121022  8.285958  -6.270913  1.71519  1.556839  0.875732  4.749907  4.190177  2.50594  4.749907  4.190177  2.505939  -11.857864  24.888912  20.390798  -82.130097  43.676968  -77.084372  -41.459017  7.218311  73.976695  47.214918  8.811323  11.247374  9.713798  9.539193  27.80555  99.440713  48.956377  13.968262  -18.653545  1.473775  -79.89324  87.211976  1.186128  3.935325  8.70435  -4.304163  12.709863  6.618239  -3.049438  9.591585  
0.0  89.887642  0.0  11.323064  -60.236572  -113.532797  49.152134  -45.934283  -36.111948  13.580817  29.862192  72.010975  -1.150401  1.263276  1.527707  -18.036012  22.737656  -52.188203  34.212481  -15.545906  74.201531  6.3409  8.501025  -6.194881  1.589031  1.309695  0.691229  4.384366  3.532353  1.9763  4.384366  3.532353  1.976299  -11.384794  26.504536  21.463382  -82.701946  43.175245  -76.452367  -40.943694  7.858042  74.835599  47.538722  8.094189  9.966172  10.52577  10.641247  29.585091  96.341093  48.816572  11.707794  -19.110648  2.776113  -81.80229  85.942472  0.185391  6.36498  8.418399  -3.464522  13.579056  6.39268  -2.413296  10.231235  
0.0  89.887642  0.0  10.09191  -58.811421  -112.192779  49.167972  -45.124206  -37.192071  12.877152  29.908181  71.930097  -1.354551  1.202505  1.441495  -19.446278  23.437872  -51.705372  33.764511  -15.187683  72.907564  6.398469  8.498086  -6.071852  1.448782  1.01407  0.502006  3.983071  2.740494  1.433135  3.983072  2.740494  1.433135  -11.065347  28.344919  22.462173  -82.661431  42.575966  -75.216476  -39.949866  8.481055  75.802484  47.696923  7.228733  8.66329  11.431244  11.975231  31.455497  92.383819  48.946052  8.750923  -19.024654  3.830147  -84.141722  84.59854  -1.090721  9.7361  8.046685  -2.438859  14.450327  6.095849  -1.640262  10.870453  
0.0  89.887642  0.0  8.606142  -57.162044  -110.668901  49.019959  -44.244277  -38.423072  11.919447  30.054748  71.667032  -1.478692  1.23393  1.407276  -21.20468  24.048933  -51.142934  33.433142  -14.900027  71.330714  6.531773  8.41837  -5.904876  1.317067  0.820107  0.482818  3.617533  2.214514  1.364421  3.617532  2.214514  1.364421  -11.532644  29.258917  22.299077  -82.043264  41.954812  -73.435252  -38.531234  9.383635  76.87852  48.010655  6.206481  7.286433  11.825715  12.831061  31.997983  88.006042  49.548938  5.474963  -18.52552  4.539001  -86.925489  83.418034  -2.669872  13.849878  7.599306  -1.640572  14.550821  5.74203  -1.050334  10.934771  
0.0  89.887642  0.0  6.773674  -55.148136  -108.839669  48.518576  -43.339009  -39.817171  11.075743  30.112132  71.55899  -1.660776  1.206545  1.307869  -23.492633  24.516955  -50.479698  33.207889  -14.636624  69.442697  6.659387  8.31141  -5.74171  1.168175  0.675489  0.609073  3.210618  1.816329  1.697417  3.210618  1.816329  1.697417  -12.678585  29.385127  21.062081  -81.192241  41.431565  -71.122592  -36.819206  10.316321  77.975008  48.695606  5.07401  5.994869  11.888736  13.342993  31.265561  83.168357  50.526315  1.72935  -17.911586  5.161422  -89.815489  82.681014  -4.567496  18.189888  7.03988  -0.937256  14.012667  5.304598  -0.541894  10.521718  
0.0  89.887642  0.0  5.030136  -52.771608  -107.096644  47.517498  -42.475483  -41.161129  10.531823  30.057185  71.721715  -1.844011  1.133249  1.237317  -26.313167  25.044241  -49.774371  33.152272  -14.425503  67.23845  6.748611  8.157715  -5.647435  1.038782  0.52481  0.761365  2.856002  1.401348  2.103505  2.856002  1.401348  2.103505  -14.213767  29.282643  19.478528  -80.254455  41.251303  -68.142348  -34.969439  10.740704  78.983828  49.63323  3.786141  4.981403  11.636298  13.565182  30.039849  78.112508  51.768791  -2.295628  -17.494564  5.897222  -92.487675  82.972833  -6.790689  21.863244  6.223026  -0.176487  13.377872  4.673789  0.003903  10.036431  
